<svg height="512" viewBox="0 0 60 60" width="512" xmlns="http://www.w3.org/2000/svg"><g id="Page-1" fill="none" fill-rule="evenodd"><g id="091---Alchemy-Symbol" fill-rule="nonzero"><path id="Shape" d="m33.24 2.19h-6.48c-12.8950293 1.50488094-23.06511906 11.6749707-24.57 24.57v6.48c1.50488094 12.8950293 11.6749707 23.0651191 24.57 24.57h6.48c12.8950293-1.5048809 23.0651191-11.6749707 24.57-24.57v-6.48c-1.5048809-12.8950293-11.6749707-23.06511906-24.57-24.57zm15.76 27.81c0 10.4934102-8.5065898 19-19 19s-19-8.5065898-19-19 8.5065898-19 19-19c5.0391133 0 9.8718377 2.00178 13.4350288 5.5649712 3.5631912 3.5631911 5.5649712 8.3959155 5.5649712 13.4350288z" fill="#00b3cb"/><path id="Shape" d="m33.24 2.19h-3c12.8950293 1.50488094 23.0651191 11.6749707 24.57 24.57v6.48c-1.5048809 12.8950293-11.6749707 23.0651191-24.57 24.57h3c12.8950293-1.5048809 23.0651191-11.6749707 24.57-24.57v-6.48c-1.5048809-12.8950293-11.6749707-23.06511906-24.57-24.57z" fill="#008086"/><path id="Shape" d="m34.97 6.52h-9.94c-9.2837248 1.97368413-16.53631587 9.2262752-18.51 18.51v9.94c1.97368413 9.2837248 9.2262752 16.5363159 18.51 18.51h9.94c9.2837248-1.9736841 16.5363159-9.2262752 18.51-18.51v-9.94c-1.9736841-9.2837248-9.2262752-16.53631587-18.51-18.51zm-4.97 42.48c-10.4934102 0-19-8.5065898-19-19s8.5065898-19 19-19 19 8.5065898 19 19c0 5.0391133-2.00178 9.8718377-5.5649712 13.4350288-3.5631911 3.5631912-8.3959155 5.5649712-13.4350288 5.5649712z" fill="#02a0eb"/><path id="Shape" d="m34.97 6.52h-3c9.2837248 1.97368413 16.5363159 9.2262752 18.51 18.51v9.94c-1.9736841 9.2837248-9.2262752 16.5363159-18.51 18.51h3c9.2837248-1.9736841 16.5363159-9.2262752 18.51-18.51v-9.94c-1.9736841-9.2837248-9.2262752-16.53631587-18.51-18.51z" fill="#0377b3"/><circle id="Oval" cx="30" cy="6" fill="#3f51ac" r="5"/><path id="Shape" d="m30 1c-.5100781.00712105-1.0160138.09279281-1.5.254 2.0807519.6438254 3.4994946 2.56791836 3.4994946 4.746s-1.4187427 4.1021746-3.4994946 4.746c1.8757024.5955702 3.9262648.0330725 5.2355561-1.43618569 1.3092914-1.4692582 1.6327423-3.57082653.8258444-5.36578593-.8068979-1.79495939-2.5934199-2.94802008-4.5614005-2.94402838z" fill="#28358a"/><circle id="Oval" cx="6" cy="30" fill="#ffd300" r="5"/><path id="Shape" d="m6 25c-.51007814.007121-1.01601378.0927928-1.5.254 2.08075191.6438254 3.49949464 2.5679184 3.49949464 4.746s-1.41874273 4.1021746-3.49949464 4.746c.48398622.1612072.98992186.246879 1.5.254 2.76142375 0 5-2.2385763 5-5s-2.23857625-5-5-5z" fill="#f5b808"/><circle id="Oval" cx="30" cy="54" fill="#60a017" r="5"/><path id="Shape" d="m30 49c-.5100781.007121-1.0160138.0927928-1.5.254 2.0807519.6438254 3.4994946 2.5679184 3.4994946 4.746s-1.4187427 4.1021746-3.4994946 4.746c1.8757024.5955702 3.9262648.0330725 5.2355561-1.4361857 1.3092914-1.4692582 1.6327423-3.5708265.8258444-5.3657859s-2.5934199-2.9480201-4.5614005-2.9440284z" fill="#548b14"/><circle id="Oval" cx="54" cy="30" fill="#eb4335" r="5"/><path id="Shape" d="m54 25c-.5100781.007121-1.0160138.0927928-1.5.254 2.0807519.6438254 3.4994946 2.5679184 3.4994946 4.746s-1.4187427 4.1021746-3.4994946 4.746c1.8757024.5955702 3.9262648.0330725 5.2355561-1.4361857 1.3092914-1.4692582 1.6327423-3.5708265.8258444-5.3657859s-2.5934199-2.9480201-4.5614005-2.9440284z" fill="#bf1e1e"/><path id="Shape" d="m30 11-16.736 28h33.472z" fill="#60a017"/><path id="Shape" d="m30 11-1.5 2.51 15.236 25.49h3z" fill="#548b14"/><path id="Shape" d="m22 39v-14.62l.23-.38h15.54l.23.38v14.62z" fill="#008100"/><circle id="Oval" cx="30" cy="32" fill="#ececec" r="3"/><g fill="#000"><path id="Shape" d="m58.758 26.359c-1.7258452-13.0895846-12.0254841-23.38963362-25.115-25.116-2.1459267-1.65732457-5.1400733-1.65732457-7.286 0-13.0895159 1.72636638-23.3891548 12.0264154-25.115 25.116-1.65596791 2.144901-1.65596791 5.137099 0 7.282 1.7258452 13.0895846 12.0254841 23.3896336 25.115 25.116 2.1459267 1.6573246 5.1400733 1.6573246 7.286 0 13.0895159-1.7263664 23.3891548-12.0264154 25.115-25.116 1.6559679-2.144901 1.6559679-5.137099 0-7.282zm-4.758 7.641c-1.8184116-.0068148-3.4034067-1.2393149-3.858-3h7.716c-.4545933 1.7606851-2.0395884 2.9931852-3.858 3zm-18.26 18.259c-.3141474-1.0258647-.8973589-1.9488513-1.689-2.673 5.7703346-1.2038737 10.7193567-4.8842815 13.533-10.064.007-.011.016-.018.022-.029.0152519-.0325335.0286075-.0659227.04-.1.8999625-1.678565 1.5533437-3.4780577 1.94-5.343.7239351.7914159 1.6465366 1.3746023 2.672 1.689-2.0828767 8.1060331-8.4122192 14.4361419-16.518 16.52zm-28-16.519c1.02546342-.3143977 1.94806493-.8975841 2.672-1.689.3866563 1.8649423 1.0400375 3.664435 1.94 5.343.0113925.0340773.0247481.0674665.04.1.006.011.015.018.022.029 2.8142983 5.1798047 7.7641095 8.8598897 13.535 10.063-.7916411.7241487-1.3748526 1.6471353-1.689 2.673-8.1055216-2.0836845-14.43480622-8.4133523-16.518-16.519zm-5.74-5.74c0-2.209139 1.790861-4 4-4s4 1.790861 4 4-1.790861 4-4 4c-1.06086596 0-2.07828161-.4214274-2.82842712-1.1715729-.75014552-.7501455-1.17157288-1.7675611-1.17157288-2.8284271zm22.26-22.259c.3141474 1.02586473.8973589 1.94885131 1.689 2.673-7.806157 1.6296124-13.9053876 7.728843-15.535 15.535-.72393507-.7914159-1.64653658-1.3746023-2.672-1.689 2.08319378-8.1056477 8.4124784-14.43531553 16.518-16.519zm11.48 0c8.1055216 2.08368447 14.4348062 8.4133523 16.518 16.519-1.0254634.3143977-1.9480649.8975841-2.672 1.689-1.6296124-7.806157-7.728843-13.9053876-15.535-15.535.7916411-.72414869 1.3748526-1.64713527 1.689-2.673zm-23.74 22.259c.0120034-9.2325486 6.9978774-16.9635479 16.182-17.908l-14.812 24.781c-.9050731-2.1783498-1.3706618-4.5141095-1.37-6.873zm11 8v-13h14v13zm-7.974 0 5.974-9.994v9.994zm23.974-9.994 5.974 9.994h-5.974zm-15.008-5.006 6.008-10.051 6.008 10.051zm20.964 17c-3.3353011 4.9983215-8.9470524 8.000097-14.956 8.000097s-11.6206989-3.0017755-14.956-8.000097zm1.674-3.127-14.812-24.781c5.6596129.5708903 10.7156374 3.7852725 13.6340565 8.667891 2.9184192 4.8826185 3.3552452 10.8579695 1.1779435 16.113109zm-17.63 13.269v2.858h-2.858c.3658904-1.3993145 1.4586855-2.4921096 2.858-2.858zm2 0c1.3993145.3658904 2.4921096 1.4586855 2.858 2.858h-2.858zm19.142-21.142c.4490235-1.7642024 2.0375517-2.9990647 3.858-2.9990647s3.4089765 1.2348623 3.858 2.9990647zm6.292-4.479c-.6874405-.3052505-1.4264488-.4776179-2.178-.508-2.2169038-9.0142738-9.2548475-16.05260284-18.269-18.27-.0304835-.75121563-.2028492-1.48987761-.508-2.177 10.5056267 2.24247506 18.7125249 10.4493733 20.955 20.955zm-26.434-22.521c2.209139 0 4 1.790861 4 4s-1.790861 4-4 4-4-1.790861-4-4 1.790861-4 4-4zm-5.479 1.566c-.3051508.68712239-.4775165 1.42578437-.508 2.177-9.0141525 2.21739716-16.05209624 9.2557262-18.269 18.27-.75155117.0303821-1.49055954.2027495-2.178.508 2.24247506-10.5056267 10.4493733-18.71252494 20.955-20.955zm-20.955 31.913c.68744046.3052505 1.42644883.4776179 2.178.508 2.21690376 9.0142738 9.2548475 16.0526028 18.269 18.27.0304835.7512156.2028492 1.4898776.508 2.177-10.5056267-2.2424751-18.71252494-10.4493733-20.955-20.955zm22.576 19.521h2.858v2.858c-1.3993145-.3658904-2.4921096-1.4586855-2.858-2.858zm4.858 2.858v-2.858h2.858c-.3658904 1.3993145-1.4586855 2.4921096-2.858 2.858zm4.479-1.424c.3051508-.6871224.4775165-1.4257844.508-2.177 9.0141525-2.2173972 16.0520962-9.2557262 18.269-18.27.7515512-.0303821 1.4905595-.2027495 2.178-.508-2.2424751 10.5056267-10.4493733 18.7125249-20.955 20.955z"/><path id="Shape" d="m30 28c-2.209139 0-4 1.790861-4 4s1.790861 4 4 4 4-1.790861 4-4-1.790861-4-4-4zm0 6c-1.1045695 0-2-.8954305-2-2s.8954305-2 2-2 2 .8954305 2 2-.8954305 2-2 2z"/><circle id="Oval" cx="30" cy="6" r="1"/></g></g></g></svg>